<svg xmlns="http://www.w3.org/2000/svg" viewBox="0 0 760 560" role="img" aria-labelledby="title desc">
<title id="title">JUBA LISAN AI tutor illustration</title><desc id="desc">Original friendly AI tutor with voice waveform and conversation bubbles.</desc>
<g stroke="#183022" stroke-width="6" stroke-linejoin="round" stroke-linecap="round">
<circle cx="380" cy="280" r="205" fill="#E5F4D8"/>
<circle cx="380" cy="280" r="138" fill="#fff"/>
<rect x="288" y="174" width="184" height="212" rx="62" fill="#3D7B27"/>
<circle cx="342" cy="264" r="15" fill="#fff" stroke="none"/><circle cx="418" cy="264" r="15" fill="#fff" stroke="none"/>
<path d="M345 316q35 31 70 0" fill="none" stroke="#fff"/>
<path d="M288 239h-46q-28 0-28 28v28q0 28 28 28h46M472 239h46q28 0 28 28v28q0 28-28 28h-46" fill="#DFF5FA"/>
<path d="M380 110v-42M350 82h60" fill="none"/>
<circle cx="380" cy="42" r="13" fill="#FFE27A"/>
<path d="M183 159h-91q-20 0-20 20v60q0 20 20 20h91l28 25-4-25h10q20 0 20-20v-60q0-20-20-20Z" fill="#fff"/>
<text x="137" y="214" text-anchor="middle" font-family="Arial,sans-serif" font-size="25" font-weight="800" fill="#183022" stroke="none">Let's talk!</text>
<path d="M576 330h106q20 0 20 20v60q0 20-20 20h-90l-28 25 4-25h-12q-20 0-20-20v-60q0-20 20-20Z" fill="#FFF0B7"/>
<text x="628" y="365" text-anchor="middle" font-family="Arial,sans-serif" font-size="23" font-weight="800" fill="#183022" stroke="none">I can help</text>
<g fill="#183022" stroke="none">
<rect x="270" y="438" width="18" height="46" rx="9"/><rect x="302" y="424" width="18" height="60" rx="9"/><rect x="334" y="412" width="18" height="72" rx="9"/><rect x="366" y="430" width="18" height="54" rx="9"/><rect x="398" y="402" width="18" height="82" rx="9"/><rect x="430" y="420" width="18" height="64" rx="9"/><rect x="462" y="438" width="18" height="46" rx="9"/>
</g>
</g></svg>